<svg xmlns="http://www.w3.org/2000/svg" width="437" height="124" viewBox="0 0 437 124"><defs><filter id="a" width="200%" height="200%" x="-50%" y="-50%"><feMorphology in="SourceGraphic" operator="dilate" result="SvgjsFeMorphology1010Out"/><feOffset in="SvgjsFeMorphology1010Out" result="SvgjsFeOffset1011Out"/><feGaussianBlur in="SvgjsFeOffset1011Out" result="SvgjsFeGaussianBlur1012Out" stdDeviation="3"/><feComposite in="SvgjsFeGaussianBlur1012Out" in2="SourceAlpha" operator="out" result="SvgjsFeComposite1013Out"/></filter><linearGradient id="b" x1="1254.5" x2="1254.5" y1="681" y2="513" gradientUnits="userSpaceOnUse"><stop offset="0" stop-color="#834401"/><stop offset="1" stop-color="#834401"/></linearGradient></defs><path fill="#fffebd" fill-opacity=".41" d="M1050 541h409a8 8 0 0 1 8 8v96a8 8 0 0 1-8 8h-409a8 8 0 0 1-8-8v-96a8 8 0 0 1 8-8z" filter="url(#a)" transform="translate(-1036 -535)"/><path fill="none" d="M14 6h409a8 8 0 0 1 8 8v96a8 8 0 0 1-8 8H14a8 8 0 0 1-8-8V14a8 8 0 0 1 8-8z"/><path fill="none" d="M14 6h409a8 8 0 0 1 8 8v96a8 8 0 0 1-8 8H14a8 8 0 0 1-8-8V14a8 8 0 0 1 8-8z"/><path fill="none" d="M14 6h409a8 8 0 0 1 8 8v96a8 8 0 0 1-8 8H14a8 8 0 0 1-8-8V14a8 8 0 0 1 8-8z"/><path fill="url(#b)" d="M1050 541h409a8 8 0 0 1 8 8v96a8 8 0 0 1-8 8h-409a8 8 0 0 1-8-8v-96a8 8 0 0 1 8-8z" transform="translate(-1036 -535)"/><path fill="#834401" d="M14 6h409a8 8 0 0 1 8 8v96a8 8 0 0 1-8 8H14a8 8 0 0 1-8-8V14a8 8 0 0 1 8-8z"/></svg>